<svg xmlns="http://www.w3.org/2000/svg" viewBox="0 0 25 24">
  <metadata><?xpacket begin="﻿" id="W5M0MpCehiHzreSzNTczkc9d"?>
<x:xmpmeta xmlns:x="adobe:ns:meta/" x:xmptk="Adobe XMP Core 5.6-c138 79.159824, 2016/09/14-01:09:01        ">
   <rdf:RDF xmlns:rdf="http://www.w3.org/1999/02/22-rdf-syntax-ns#">
      <rdf:Description rdf:about=""/>
   </rdf:RDF>
</x:xmpmeta>
                                                                                                    
                                                                                                    
                                                                                                    
                                                                                                    
                                                                                                    
                                                                                                    
                                                                                                    
                                                                                                    
                                                                                                    
                                                                                                    
                                                                                                    
                                                                                                    
                                                                                                    
                                                                                                    
                                                                                                    
                                                                                                    
                                                                                                    
                                                                                                    
                                                                                                    
                                                                                                    
                           
<?xpacket end="w"?></metadata>
  <path id="Прямоугольник_скругл._углы_3_копия" data-name="Прямоугольник, скругл. углы 3 копия" class="cls-1" d="M1226.4,797.978L1224,798v2a2.2,2.2,0,0,1-2,2h0a2.2,2.2,0,0,1-2-2v-2h-9v2a2.2,2.2,0,0,1-2,2h0a2.2,2.2,0,0,1-2-2v-2l-2.4-.022a1.585,1.585,0,0,0-1.6,1.564v18.894a1.586,1.586,0,0,0,1.6,1.564h21.8a1.586,1.586,0,0,0,1.6-1.564V799.542A1.586,1.586,0,0,0,1226.4,797.978ZM1226,818h-21V804h21v14h0Zm-3-4h1a1,1,0,0,1,1,1v1a1,1,0,0,1-1,1h-1a1,1,0,0,1-1-1v-1A1,1,0,0,1,1223,814Zm0-4h1a1,1,0,0,1,1,1v1a1,1,0,0,1-1,1h-1a1,1,0,0,1-1-1v-1A1,1,0,0,1,1223,810Zm0-4h1a1,1,0,0,1,1,1v1a1,1,0,0,1-1,1h-1a1,1,0,0,1-1-1v-1A1,1,0,0,1,1223,806Zm-4,8h1a1,1,0,0,1,1,1v1a1,1,0,0,1-1,1h-1a1,1,0,0,1-1-1v-1A1,1,0,0,1,1219,814Zm0-4h1a1,1,0,0,1,1,1v1a1,1,0,0,1-1,1h-1a1,1,0,0,1-1-1v-1A1,1,0,0,1,1219,810Zm0-4h1a1,1,0,0,1,1,1v1a1,1,0,0,1-1,1h-1a1,1,0,0,1-1-1v-1A1,1,0,0,1,1219,806Zm-4,8h1a1,1,0,0,1,1,1v1a1,1,0,0,1-1,1h-1a1,1,0,0,1-1-1v-1A1,1,0,0,1,1215,814Zm0-4h1a1,1,0,0,1,1,1v1a1,1,0,0,1-1,1h-1a1,1,0,0,1-1-1v-1A1,1,0,0,1,1215,810Zm-4,4h1a1,1,0,0,1,1,1v1a1,1,0,0,1-1,1h-1a1,1,0,0,1-1-1v-1A1,1,0,0,1,1211,814Zm0-4h1a1,1,0,0,1,1,1v1a1,1,0,0,1-1,1h-1a1,1,0,0,1-1-1v-1A1,1,0,0,1,1211,810Zm-2.5-14h1a0.5,0.5,0,0,1,.5.5v4a0.5,0.5,0,0,1-.5.5h-1a0.5,0.5,0,0,1-.5-0.5v-4A0.5,0.5,0,0,1,1208.5,796Zm13,0h1a0.5,0.5,0,0,1,.5.5v4a0.5,0.5,0,0,1-.5.5h-1a0.5,0.5,0,0,1-.5-0.5v-4A0.5,0.5,0,0,1,1221.5,796Z" transform="translate(-1203 -796)"/>
</svg>
