<svg xmlns="http://www.w3.org/2000/svg" viewBox="0 0 13.69 15.125">
  <metadata><?xpacket begin="﻿" id="W5M0MpCehiHzreSzNTczkc9d"?>
<x:xmpmeta xmlns:x="adobe:ns:meta/" x:xmptk="Adobe XMP Core 5.6-c138 79.159824, 2016/09/14-01:09:01        ">
   <rdf:RDF xmlns:rdf="http://www.w3.org/1999/02/22-rdf-syntax-ns#">
      <rdf:Description rdf:about=""/>
   </rdf:RDF>
</x:xmpmeta>
                                                                                                    
                                                                                                    
                                                                                                    
                                                                                                    
                                                                                                    
                                                                                                    
                                                                                                    
                                                                                                    
                                                                                                    
                                                                                                    
                                                                                                    
                                                                                                    
                                                                                                    
                                                                                                    
                                                                                                    
                                                                                                    
                                                                                                    
                                                                                                    
                                                                                                    
                                                                                                    
                           
<?xpacket end="w"?></metadata>
  <path id="Forma_1_копия_12" data-name="Forma 1 копия 12" class="cls-1" d="M1258.73,50.043v0l-1.27.81c-0.81.545-4.28,1.145-8.95-4.486-4.51-5.425-3.19-8.412-2.58-9.1l1.05-1.066a0.594,0.594,0,0,1,.83.073l2.74,3.219v0a0.578,0.578,0,0,1-.07.82v0l-1.23.86c-0.49.469-.07,1.212,0.42,1.931l2.34,2.74c1.08,1.043,1.68,1.526,2.2,1.185l1.02-1.107a0.593,0.593,0,0,1,.83.073l2.74,3.217v0A0.578,0.578,0,0,1,1258.73,50.043Z" transform="translate(-1245.25 -36.063)"/>
</svg>
