<svg xmlns="http://www.w3.org/2000/svg" viewBox="0 0 15 17">
  <metadata><?xpacket begin="﻿" id="W5M0MpCehiHzreSzNTczkc9d"?>
<x:xmpmeta xmlns:x="adobe:ns:meta/" x:xmptk="Adobe XMP Core 5.6-c138 79.159824, 2016/09/14-01:09:01        ">
   <rdf:RDF xmlns:rdf="http://www.w3.org/1999/02/22-rdf-syntax-ns#">
      <rdf:Description rdf:about=""/>
   </rdf:RDF>
</x:xmpmeta>
                                                                                                    
                                                                                                    
                                                                                                    
                                                                                                    
                                                                                                    
                                                                                                    
                                                                                                    
                                                                                                    
                                                                                                    
                                                                                                    
                                                                                                    
                                                                                                    
                                                                                                    
                                                                                                    
                                                                                                    
                                                                                                    
                                                                                                    
                                                                                                    
                                                                                                    
                                                                                                    
                           
<?xpacket end="w"?></metadata>
  <path id="Forma_1_копия_6" data-name="Forma 1 копия 6" class="cls-1" d="M703,1676v5h-2v-3h-1v-1c1.094-.58,2-1,2-1h1Zm6-6a0.938,0.938,0,0,0-1-1h-1v1c0,0.59-.425,1-2,1a0.973,0.973,0,0,1-1-1v-1h-5v1a0.945,0.945,0,0,1-1,1c-2.222,0-2-.48-2-1v-1h-1a1.11,1.11,0,0,0-1,1v1a0.929,0.929,0,0,0,1,1h13a0.914,0.914,0,0,0,1-1v-1Zm-15,13a0.91,0.91,0,0,0,1,1h13a0.928,0.928,0,0,0,1-1v-9a0.952,0.952,0,0,0-1-1H695a0.861,0.861,0,0,0-1,1m3-5c0,0.41.052,0.7,0.506,0.7s0.494-.29.494-0.7v-1c0-.41-0.039-1-0.494-1s-0.506.59-.506,1v1Zm8,0c0,0.41.05,0.7,0.526,0.7,0.454,0,.474-0.29.474-0.7v-1c0-.41-0.02-1-0.474-1-0.476,0-.526.59-0.526,1v1Z" transform="translate(-694 -1667)"/>
</svg>
