<svg xmlns="http://www.w3.org/2000/svg" viewBox="0 0 16 12">
  <metadata><?xpacket begin="﻿" id="W5M0MpCehiHzreSzNTczkc9d"?>
<x:xmpmeta xmlns:x="adobe:ns:meta/" x:xmptk="Adobe XMP Core 5.6-c138 79.159824, 2016/09/14-01:09:01        ">
   <rdf:RDF xmlns:rdf="http://www.w3.org/1999/02/22-rdf-syntax-ns#">
      <rdf:Description rdf:about=""/>
   </rdf:RDF>
</x:xmpmeta>
                                                                                                    
                                                                                                    
                                                                                                    
                                                                                                    
                                                                                                    
                                                                                                    
                                                                                                    
                                                                                                    
                                                                                                    
                                                                                                    
                                                                                                    
                                                                                                    
                                                                                                    
                                                                                                    
                                                                                                    
                                                                                                    
                                                                                                    
                                                                                                    
                                                                                                    
                                                                                                    
                           
<?xpacket end="w"?></metadata>
  <path id="Forma_1_копия_11" data-name="Forma 1 копия 11" class="cls-1" d="M1348.9,68h-11.8a2.051,2.051,0,0,0-2.1,2.1v7.8a2.051,2.051,0,0,0,2.1,2.1h11.8a2.051,2.051,0,0,0,2.1-2.1V70.1A2.051,2.051,0,0,0,1348.9,68Zm-1.6,2-4.3,3.6-4.1-3.6h8.4Zm1.6,8h-11.8c-0.1,0-.1,0-0.1-0.1V71l5.3,4.6a0.981,0.981,0,0,0,1.3.1l5.4-4.5v6.7C1349,78,1349,78,1348.9,78Z" transform="translate(-1335 -68)"/>
</svg>
