<svg xmlns="http://www.w3.org/2000/svg" viewBox="0 0 16 14">
  <metadata><?xpacket begin="﻿" id="W5M0MpCehiHzreSzNTczkc9d"?>
<x:xmpmeta xmlns:x="adobe:ns:meta/" x:xmptk="Adobe XMP Core 5.6-c138 79.159824, 2016/09/14-01:09:01        ">
   <rdf:RDF xmlns:rdf="http://www.w3.org/1999/02/22-rdf-syntax-ns#">
      <rdf:Description rdf:about=""/>
   </rdf:RDF>
</x:xmpmeta>
                                                                                                    
                                                                                                    
                                                                                                    
                                                                                                    
                                                                                                    
                                                                                                    
                                                                                                    
                                                                                                    
                                                                                                    
                                                                                                    
                                                                                                    
                                                                                                    
                                                                                                    
                                                                                                    
                                                                                                    
                                                                                                    
                                                                                                    
                                                                                                    
                                                                                                    
                                                                                                    
                           
<?xpacket end="w"?></metadata>
  <path id="Прямоугольник_скругл._углы_2_копия_2" data-name="Прямоугольник, скругл. углы 2 копия 2" class="cls-1" d="M399.5,522h15a0.5,0.5,0,0,1,.5.5v1a0.5,0.5,0,0,1-.5.5h-15a0.5,0.5,0,0,1-.5-0.5v-1A0.5,0.5,0,0,1,399.5,522Zm0,4h15a0.5,0.5,0,0,1,.5.5v1a0.5,0.5,0,0,1-.5.5h-15a0.5,0.5,0,0,1-.5-0.5v-1A0.5,0.5,0,0,1,399.5,526Zm0,4h15a0.5,0.5,0,0,1,.5.5v1a0.5,0.5,0,0,1-.5.5h-15a0.5,0.5,0,0,1-.5-0.5v-1A0.5,0.5,0,0,1,399.5,530Zm0,4h15a0.5,0.5,0,0,1,.5.5v1a0.5,0.5,0,0,1-.5.5h-15a0.5,0.5,0,0,1-.5-0.5v-1A0.5,0.5,0,0,1,399.5,534Z" transform="translate(-399 -522)"/>
</svg>
