<svg xmlns="http://www.w3.org/2000/svg" viewBox="0 0 14.91 15">
  <metadata><?xpacket begin="﻿" id="W5M0MpCehiHzreSzNTczkc9d"?>
<x:xmpmeta xmlns:x="adobe:ns:meta/" x:xmptk="Adobe XMP Core 5.6-c138 79.159824, 2016/09/14-01:09:01        ">
   <rdf:RDF xmlns:rdf="http://www.w3.org/1999/02/22-rdf-syntax-ns#">
      <rdf:Description rdf:about=""/>
   </rdf:RDF>
</x:xmpmeta>
                                                                                                    
                                                                                                    
                                                                                                    
                                                                                                    
                                                                                                    
                                                                                                    
                                                                                                    
                                                                                                    
                                                                                                    
                                                                                                    
                                                                                                    
                                                                                                    
                                                                                                    
                                                                                                    
                                                                                                    
                                                                                                    
                                                                                                    
                                                                                                    
                                                                                                    
                                                                                                    
                           
<?xpacket end="w"?></metadata>
  <path id="Forma_1" data-name="Forma 1" class="cls-1" d="M1353.6,534.23l-3.15-3.17a6.379,6.379,0,0,0,1.18-3.7,6.306,6.306,0,1,0-6.31,6.36,6.2,6.2,0,0,0,3.67-1.193l3.15,3.17a1.028,1.028,0,0,0,1.46,0A1.045,1.045,0,0,0,1353.6,534.23Zm-11.29-3.84a4.3,4.3,0,0,1,0-6.061,4.235,4.235,0,0,1,6.02,0,4.323,4.323,0,0,1,0,6.061A4.237,4.237,0,0,1,1342.31,530.39Z" transform="translate(-1339 -521)"/>
</svg>
