<svg xmlns="http://www.w3.org/2000/svg" xmlns:xlink="http://www.w3.org/1999/xlink" viewBox="0 0 232.65 80.85"><defs><style>.cls-1{fill:url(#Безымянный_градиент_34);}.cls-2{fill:url(#Безымянный_градиент_36);}.cls-3{fill:#572c6e;stroke:#572c6e;stroke-miterlimit:10;fill-rule:evenodd;}</style><linearGradient id="Безымянный_градиент_34" y1="37.04" x2="174.28" y2="37.04" gradientUnits="userSpaceOnUse"><stop offset="0" stop-color="#fff"/><stop offset="0.02" stop-color="#faf9fb"/><stop offset="0.29" stop-color="#c1b1c9"/><stop offset="0.53" stop-color="#9378a2"/><stop offset="0.74" stop-color="#734f86"/><stop offset="0.9" stop-color="#5e3574"/><stop offset="1" stop-color="#572c6e"/></linearGradient><linearGradient id="Безымянный_градиент_36" y1="53.8" x2="189.81" y2="53.8" gradientUnits="userSpaceOnUse"><stop offset="0" stop-color="#fff"/><stop offset="0.27" stop-color="#c6b8ce"/><stop offset="0.52" stop-color="#977ca5"/><stop offset="0.74" stop-color="#745087"/><stop offset="0.9" stop-color="#5f3675"/><stop offset="1" stop-color="#572c6e"/></linearGradient></defs><title>Ресурс 1</title><g id="Слой_2" data-name="Слой 2"><g id="Layer_1" data-name="Layer 1"><polygon class="cls-1" points="0 61.93 174.28 13.63 173.87 12.15 0 60.33 0 61.93"/><polygon class="cls-2" points="0 80.85 189.81 28.24 189.4 26.76 0 79.25 0 80.85"/><path class="cls-3" d="M133.21,24.31c0-.07-.07-.07-.09-.13l-4.75-5.72c-.51-.61-3.51-4.43-3.51-4.43.82-1.08,0-.5,1.25-1.51a23.48,23.48,0,0,1,3.24-.86c5.17,2.48,10.41,5.35,15.57,8,2.34,1.17,4.88,2.68,7.69,2.76,3.57-1.47,13.26-4.52,14.55-4.91,2.51-.77,4.59-1.48,6.89-2.21-1.33-.36-2.49-1.65-4.27-1.35,0-.29.42-.32.48-.59a12.29,12.29,0,0,1-2.27-1c-1.12-.52-2.15-1.23-3.25-.88-.15-.36.22-.37.33-.56-1.06-.27-1.82-1.31-3-1.13-.1-.24.31-.14.29-.34a40.82,40.82,0,0,1-6.47-3.26A18.51,18.51,0,0,1,159.52,5c3,.81,6.08,1.63,9.13,2.41a1.89,1.89,0,0,1-.05-.23l3.89-.92s0,0,0,0c.21-.07.57.44.81,1.13a2.35,2.35,0,0,1,.16,1.25c1.28.31,2.56.6,3.84.89l1.58-.7c0-.15-.07-.31-.1-.46L184.48,7l.05,0c.3-.1.82.63,1.16,1.64s.39,1.91.09,2h-.1l-.88.4c.55.13,1.1.27,1.63.43,4.26-1.62,9.17-2.73,14.12-4.55,2.95-1.08,6.15-1.87,9.16-2.82,3.23-1,6.39-2.1,9.23-2.83.53-.14,1.08-.27,1.63-.39l.83-.17A15.85,15.85,0,0,1,230.65,2a3.11,3.11,0,0,1,.41.2,4.52,4.52,0,0,1,1.07.83,5.08,5.08,0,0,1-1.62,3.09,14.81,14.81,0,0,1-2.09,1.66,24.9,24.9,0,0,1-6.4,3.35C216.29,13.21,209.7,15.05,204,17a.76.76,0,0,1-.7.91c-.19-.2.12-.4-.18-.61a5.22,5.22,0,0,0-2,.63c-.25,1-.75,1.8-1,2.77a16.49,16.49,0,0,1,3.75-.8c-.16-.25.16-.17.16-.31a1.75,1.75,0,0,1,1.14-.06c3.13-1.66,4.55,2,3.86,4.37a20.65,20.65,0,0,1-7.12,2.54c-.16-.12-.09-.57-.32-.59a27.92,27.92,0,0,1-4.82.84c-1.79,2.77-3.52,5.58-5.32,8.34a13.92,13.92,0,0,1-5.41,1.6c.06-.52.12-1.06.19-1.6a10.59,10.59,0,0,1-1.42.4.76.76,0,0,0-.12-.19c.51-.18,1-.35,1.57-.51.09-.7.18-1.38.27-1.94-.13-.07-.55.2-.67-.1a1.68,1.68,0,0,0,.72-.41,1.33,1.33,0,0,0-.06-.78,3,3,0,0,1-1.06.11c.14-.41.76-.49,1.09-.76,0-.69-.06-1.36,0-2.16-.48,0-.7.23-.89-.13.27-.25.71-.37.9-.66a5.31,5.31,0,0,0-.48-2.3,5.11,5.11,0,0,1-1.59-.08c.21-.3.64-.45.88-.73-.38-.08-.58-.39-.89-.57a27.91,27.91,0,0,1-4.06,1.14c-.46.09-1,0-1.5.05a23.31,23.31,0,0,0-4,1.27c-1.76.62-3.68,1.19-5.37,1.8a45.44,45.44,0,0,1-4.58,1.37c-2,.51-3.82,1.08-5.87,1.46-3.63.67-7.83,1-11.37,1.33a16.17,16.17,0,0,0-2.9.29,7.86,7.86,0,0,0-1.5,1.27c-.53.46-1,.94-1.5,1.34-1.07.93-2.13,1.95-3,2.62s-2.65.68-3.82,1.17c.34-2,.76-3.47,1.12-5.53a7.39,7.39,0,0,1-2.93-.28l-.17-1a16,16,0,0,1,2.12-1.88c-1.65-1.21-3.37-2.67-5.09-4-.65-.51-1.73-1-1.76-1.85C130,24.12,131.9,23.57,133.21,24.31Z"/></g></g></svg>